<svg xmlns="http://www.w3.org/2000/svg" viewBox="0 0 288 600"><rect width="288" height="600" fill="#2b2443"/><ellipse cx="144" cy="570" rx="72" ry="13" fill="#08070c" opacity=".3"/><path d="M112 132c0-52 25-87 67-87 43 0 68 35 68 87 0 28-9 52-24 68h-87c-15-18-24-41-24-68z" fill="#40345f"/><ellipse cx="179" cy="138" rx="50" ry="58" fill="#e8c99a"/><path d="M133 130c4-44 25-70 61-70 31 0 51 21 56 53-26-9-55-20-83-8-11 5-21 13-34 25z" fill="#40345f"/><circle cx="163" cy="140" r="4" fill="#30261f"/><circle cx="197" cy="140" r="4" fill="#30261f"/><path d="M163 163c11 8 23 8 35 0" fill="none" stroke="#8d624b" stroke-width="3.5"/><path d="M102 244c27-20 58-20 84 0l22 234H80z" fill="#50457a"/><path d="M94 260h100l-16 157H92z" fill="#9a8cc0" opacity=".55"/><path d="M105 259C78 282 66 324 70 380M187 258c30 20 45 60 43 104" stroke="#50457a" stroke-width="28" stroke-linecap="round"/><path d="M84 454h49l-9 99H89zM156 454h50l-7 99h-37z" fill="#50457a"/><path d="M84 547h45l-5 29H76c0-12 3-21 8-29zM158 547h46l8 29h-53z" fill="#302c27"/><path d="M175 318h42v84h-42z" fill="#ded8ef"/><path d="M181 329h30v5h-30zM181 344h26v5h-26zM181 359h29v5h-29z" fill="#786d98"/></svg>